<svg width="30" height="29" viewBox="0 0 30 29" fill="none" xmlns="http://www.w3.org/2000/svg">
<path d="M14.9707 0.878906C7.23633 0.878906 0.908203 7.20703 0.908203 14.9414C0.908203 22.6758 7.23633 29.0039 14.9707 29.0039C19.9746 29.0039 24.3926 26.3555 26.8828 22.3887C26.9305 22.3133 26.9517 22.2242 26.9433 22.1355C26.9348 22.0467 26.8971 21.9632 26.8361 21.8982C26.7751 21.8332 26.6942 21.7902 26.6062 21.7761C26.5181 21.762 26.4279 21.7776 26.3496 21.8203C26.0068 22.0216 25.6458 22.1903 25.2715 22.3242C23.1152 23.0625 21.9258 23.0918 20.4609 23.0273C18.8262 22.957 16.834 22.3945 15.4336 21.5625C14.0332 20.7305 12.8848 19.5352 12.2637 18.498C11.6426 17.4609 11.2676 16.1602 11.4375 14.4961C11.6074 12.7969 13.1602 11.4141 14.9766 11.4141C16.9395 11.4141 18.5391 12.9727 18.5391 14.9355C18.5391 15.9316 18.0645 16.793 17.4551 17.4844C17.3203 17.6074 17.0098 18.0527 17.7949 18.6562C18.7266 19.3711 20.8184 19.7109 22.4766 19.6289C24.1348 19.5469 25.9395 18.8906 27.1758 17.5898C28.1602 16.5527 29.0391 14.8887 29.0391 13.0547C29.0332 5.72461 22.2363 0.878906 14.9707 0.878906Z" fill="#9B31CD"/>
</svg>
